#!OML:ASF F:\VICON\USERDATA\INSTALL\rory3\rory3.ASF
:FULLY-SPECIFIED
:DEGREES
930
root 4.66357 17.3656 2.54629 5.93604 -12.7141 -5.62971
lowerback 11.0287 0.246613 4.52524
upperback 4.18092 0.805922 1.33699
thorax -1.77196 0.412742 -1.25709
lowerneck -11.9604 -0.371544 -2.80512
upperneck 35.6947 0.188389 -0.331516
head 14.2065 -0.393285 0.378121
rclavicle -1.1281e-014 1.78906e-015
rhumerus -32.0967 -3.40681 -17.2799
rradius 35.0915
rwrist 9.87179
rhand -20.5082 -45.4686
rfingers 7.12502
rthumb 5.84921 -75.3679
lclavicle -1.1281e-014 1.78906e-015
lhumerus -30.1068 2.02179 11.4099
lradius 29.7141
lwrist 10.958
lhand -24.5436 -31.7441
lfingers 7.12502
lthumb 1.95239 -1.77331
rfemur -98.4049 2.10709 28.4847
rtibia 98.3387
rfoot 47.2492 3.83128
rtoes -7.44632
lfemur -18.6232 1.06611 -23.9021
ltibia 30.519
lfoot -14.2763 9.32302
ltoes 10.8488
931
root 4.66565 17.3707 2.55045 5.92806 -12.7343 -5.66452
lowerback 10.9765 0.259384 4.58984
upperback 4.21201 0.824824 1.33199
thorax -1.70867 0.424248 -1.29999
lowerneck -11.902 -0.373031 -2.83777
upperneck 35.6006 0.16525 -0.254636
head 14.1499 -0.395746 0.411738
rclavicle -1.57785e-014 -7.95139e-016
rhumerus -32.1292 -3.4446 -17.2945
rradius 35.1586
rwrist 9.90358
rhand -20.3365 -45.6096
rfingers 7.12502
rthumb 6.01497 -75.5042
lclavicle -1.57785e-014 -7.95139e-016
lhumerus -30.0067 2.10455 11.3658
lradius 29.8381
lwrist 11.0581
lhand -24.2469 -30.835
lfingers 7.12502
lthumb 2.23891 -0.867026
rfemur -98.3046 2.11374 28.5133
rtibia 98.3225
rfoot 47.467 2.87649
rtoes -6.65544
lfemur -18.6849 1.0384 -23.8372
ltibia 30.5657
lfoot -14.3664 9.15432
ltoes 10.919
932
root 4.66698 17.3746 2.5541 5.90406 -12.6651 -5.71477
lowerback 10.9396 0.243758 4.67034
upperback 4.23551 0.809585 1.34547
thorax -1.66357 0.418395 -1.32873
lowerneck -11.8026 -0.37448 -2.87187
upperneck 35.4973 0.145162 -0.189804
head 14.0801 -0.39853 0.441105
rclavicle -9.0447e-015 4.65156e-014
rhumerus -32.1217 -3.56982 -17.2556
rradius 35.0605
rwrist 10.0312
rhand -20.2195 -45.5678
rfingers 7.12502
rthumb 6.12793 -75.4592
lclavicle -9.0447e-015 4.65156e-014
lhumerus -29.9254 2.17778 11.3423
lradius 29.7607
lwrist 11.0791
lhand -23.7948 -31.2293
lfingers 7.12502
lthumb 2.67554 -1.26636
rfemur -98.2406 2.05309 28.5486
rtibia 98.355
rfoot 47.0085 4.16512
rtoes -8.08024
lfemur -18.6973 1.07668 -23.7572
ltibia 30.5774
lfoot -14.449 8.87301
ltoes 10.8201
933
root 4.66814 17.3691 2.55736 5.86857 -12.6246 -5.72771
lowerback 10.9943 0.220966 4.69426
upperback 4.20798 0.786626 1.3502
thorax -1.72307 0.405559 -1.33524
lowerneck -11.7232 -0.363523 -2.82408
upperneck 35.492 0.166375 -0.25108
head 14.0596 -0.391167 0.411025
rclavicle 1.73191e-014 -3.97569e-016
rhumerus -32.0647 -3.73547 -17.1859
rradius 34.8021
rwrist 10.3215
rhand -20.2267 -45.2077
rfingers 7.12502
rthumb 6.12096 -75.0993
lclavicle 1.73191e-014 -3.97569e-016
lhumerus -29.8802 2.07735 11.3565
lradius 29.7443
lwrist 11.2606
lhand -23.7883 -30.5018
lfingers 7.12502
lthumb 2.68179 -0.538957
rfemur -98.2452 2.03555 28.5304
rtibia 98.4046
rfoot 47.0904 3.97044
rtoes -7.90084
lfemur -18.558 1.23138 -23.7891
ltibia 30.5384
lfoot -14.4178 8.87773
ltoes 10.672
